<?xml version="1.0" encoding="UTF-8" standalone="no"?>
<svg
   xmlns:dc="http://purl.org/dc/elements/1.1/"
   xmlns:cc="http://creativecommons.org/ns#"
   xmlns:rdf="http://www.w3.org/1999/02/22-rdf-syntax-ns#"
   xmlns:svg="http://www.w3.org/2000/svg"
   xmlns="http://www.w3.org/2000/svg"
   id="svg8"
   version="1.1"
   viewBox="0 0 507.99996 285.74999"
   height="285.75mm"
   width="507.99997mm">
  <defs
     id="defs2" />
  <metadata
     id="metadata5">
    <rdf:RDF>
      <cc:Work
         rdf:about="">
        <dc:format>image/svg+xml</dc:format>
        <dc:type
           rdf:resource="http://purl.org/dc/dcmitype/StillImage" />
        <dc:title></dc:title>
      </cc:Work>
    </rdf:RDF>
  </metadata>
  <g
     transform="translate(-385.1239,197.737)"
     id="layer1">
    <path
       id="rect871-4"
       d="M 385.12392,-197.73651 V 74.201932 c 0,0 103.11736,-10.363834 154.83036,-9.886735 72.3621,0.66762 143.997,18.015963 216.362,17.829403 45.7769,-0.117999 136.80755,-11.984281 136.80755,-11.984281 V -197.73651 Z"
       style="opacity:0.5;fill:#4d4d4d;fill-opacity:1;fill-rule:nonzero;stroke:none;stroke-width:15.63698959;stroke-linecap:round;stroke-linejoin:miter;stroke-miterlimit:4;stroke-dasharray:none;stroke-dashoffset:0;stroke-opacity:1;paint-order:normal" />
    <rect
       y="-921.74902"
       x="2390.4585"
       height="838.15723"
       width="1041.282"
       id="rect3873"
       style="opacity:0.6;fill:#000000;fill-opacity:1;stroke:none;stroke-width:2.88599992;stroke-linecap:round;stroke-linejoin:miter;stroke-miterlimit:4;stroke-dasharray:none;stroke-dashoffset:0;stroke-opacity:1;paint-order:normal" />
    <path
       id="rect849-5-2"
       d="m 3111.8144,-405.79586 c -5.5504,5.90073 -13.8528,17.54357 -13.1552,20.65258 0.8815,3.97867 29.9225,-34.1834 44.9537,-25.69784 10.9965,6.20868 -9.9732,31.4399 0.8846,37.87642 10.6479,6.30696 24.0153,-8.52519 32.9718,-17.06459 7.2947,-6.95635 10.961,-5.75651 5.897,3.71591 -8.6896,16.24918 -32.0875,36.31814 -47.3629,28.50328 -14.616,-7.47697 5.105,-35.4185 -1.9167,-38.2215 -4.7453,-1.89542 -32.5048,22.52311 -41.3522,39.37495 -5.26,10.01461 -6.8204,19.57866 -5.3108,33.51755 2.0575,18.92329 -5.4765,35.23789 -18.285,11.61018 -5.147,-9.50183 -5.65,-19.51025 -5.9462,-28.6961 -0.3426,-10.74751 1.5535,-21.62067 4.6263,-31.92338 2.9077,-9.73863 7.142,-19.24992 12.8883,-27.63235 5.0946,-7.43063 11.8157,-15.02931 18.7293,-19.48659 22.3459,-14.40629 38.4684,-14.27744 12.3663,13.47148 z"
       style="opacity:1;fill:none;fill-opacity:1;stroke:#ffffff;stroke-width:2.88600016;stroke-linecap:round;stroke-linejoin:miter;stroke-miterlimit:4;stroke-dasharray:none;stroke-dashoffset:0;stroke-opacity:1;paint-order:normal" />
    <path
       id="rect880-5-0"
       d="m 3031.2211,-413.74776 c -6.7454,-1.3272 -15.5458,4.87892 -19.9639,11.07591 -9.0333,12.66881 -17.541,33.60198 -8.1003,45.96837 3.7047,4.85073 12.8048,4.47947 18.2312,1.68648 10.9566,-5.6429 17.313,-19.69117 18.6071,-31.94662 0.9378,-8.91288 0.5433,-26.21504 -8.388,-25.54538 -1.6488,0.0887 -1.9341,3.66215 -0.8202,4.90463 13.0805,14.79987 59.1963,-2.62932 59.1963,-2.62932 l -8.8741,17.44636 c 0,0 -55.794,3.64852 -61.3888,-16.8171 -1.8093,-6.61173 7.5196,-15.72223 14.308,-14.76838 13.6505,1.92021 20.3394,22.72368 19.4766,36.48159 -1.3006,20.6751 -22.4713,45.52149 -35.8945,50.73243 -11.0174,4.27707 -27.0388,-0.85918 -33.0427,-10.77278 -12.473,-20.58045 -4.4913,-53.60873 11.9263,-71.20371 9.9998,-10.71594 26.1687,-11.44119 36.4737,-7.01411 19.7876,8.50025 -1.3453,8.24577 -1.7431,12.40079 v 0.003 z"
       style="opacity:1;fill:none;fill-opacity:1;stroke:#ffffff;stroke-width:2.88600016;stroke-linecap:round;stroke-linejoin:miter;stroke-miterlimit:4;stroke-dasharray:none;stroke-dashoffset:0;stroke-opacity:1;paint-order:normal" />
    <path
       id="rect875-9-4"
       d="m 2984.2998,-399.92915 5.8963,16.42851 c 0,0 -20.7001,48.75397 -41.8434,47.75745 -25.794,-1.20653 -20.1653,-57.10195 -45.3498,-62.80843 -8.6956,-1.97007 -18.8055,5.22261 -23.4758,12.81781 -5.7999,9.43478 -9.6124,26.19606 -1.0344,33.20802 5.6257,4.60147 15.7758,-0.15799 21.2255,-4.98832 56.5144,-49.86505 63.2742,-176.55102 78.7378,-211.95531 8.2334,-18.85427 30.9272,-21.42938 24.9484,4.48016 -6.972,30.21727 -35.8674,187.64314 -110.4054,226.08834 -11.1267,5.73911 -30.0587,4.24823 -37.0527,-6.13499 -13.4613,-19.98372 -0.3466,-52.69511 15.8481,-70.52461 8.4787,-9.32664 24.1124,-16.13048 35.9347,-11.76356 27.3237,10.09121 16.3164,74.11352 45.4365,74.637 18.8569,0.32887 31.1404,-47.24207 31.1404,-47.24207 z"
       style="opacity:1;fill:none;fill-opacity:1;stroke:#ffffff;stroke-width:2.88600016;stroke-linecap:round;stroke-linejoin:miter;stroke-miterlimit:4;stroke-dasharray:none;stroke-dashoffset:0;stroke-opacity:1;paint-order:normal" />
    <path
       id="rect872-1-2"
       d="m 2788.4101,-374.48981 1.8261,-7.14338 c 0,0 22.9349,-2.67467 30.1699,-10.48525 4.1132,-4.44008 8.8678,-13.23112 4.6355,-17.55608 -5.7217,-5.84457 -18.3464,-0.29422 -23.8513,5.75424 -6.9102,7.59187 -7.717,20.77479 -4.382,30.48357 2.9453,8.57604 10.5334,19.01415 19.5991,18.86405 21.3714,-0.34015 44.7072,-45.96437 44.7072,-45.96437 l 3.0615,10.60603 c -1.0375,1.93805 -22.1664,52.57123 -45.7181,54.05721 -19.6229,1.24142 -39.3561,-20.66425 -43.4416,-39.8948 -3.3572,-15.8005 6.3154,-34.82539 19.2802,-44.45794 11.5116,-8.55157 33.1305,-15.6442 42.7289,-4.99192 9.0097,9.99638 0.4236,29.61238 -8.8133,39.39627 -9.4714,10.02927 -27.8505,12.94622 -39.8013,11.33237 z"
       style="opacity:1;fill:none;fill-opacity:1;stroke:#ffffff;stroke-width:2.88600016;stroke-linecap:round;stroke-linejoin:miter;stroke-miterlimit:4;stroke-dasharray:none;stroke-dashoffset:0;stroke-opacity:1;paint-order:normal" />
    <path
       id="rect869-2-6"
       d="m 2551.0859,-402.04357 v -1.77728 c 0,0 46.9724,20.43139 96.5515,11.21587 40.6416,-7.55417 77.5525,-32.84392 108.424,-60.37953 22.9796,-20.49548 45.9019,-51.24623 53.8411,-75.0605 3.1464,-9.43772 8.7006,-25.6657 -2.4097,-29.74798 -28.5066,-10.47345 -53.467,37.13191 -67.6804,61.7147 -19.9545,34.51784 -29.9048,73.08509 -38.8301,115.232 -8.931,42.14529 -23.8106,132.33439 -3.3745,138.87306 19.6361,6.28367 28.4623,-25.33875 34.074,-65.22258 5.6117,-39.88533 -12.2499,-85.80573 -3.6426,-91.21836 8.4353,-5.30532 9.2982,6.13166 22.9381,11.51313 14.0981,5.56136 23.8316,4.2237 23.8316,4.2237 l 4.8004,15.2581 c 0,0 -20.0682,-9.28571 -27.41,-2.94828 -9.9833,8.61973 -9.3901,25.35351 -7.7401,49.14551 2.9916,43.08766 -20.9564,110.74901 -55.3911,95.77574 -19.5341,-8.49254 -20.829,-45.27562 -21.3094,-69.50211 -1.6311,-82.34368 18.2408,-169.77813 63.005,-238.91085 16.1527,-24.94593 40.8984,-47.46745 69.3582,-56.02004 16.4995,-4.95779 51.9103,8.04674 31.5438,52.58757 -16.5219,36.13452 -43.2806,68.31894 -74.0027,93.56689 -31.6502,26.01344 -68.5941,50.0199 -109.3474,56.12651 -50.001,7.49237 -97.2015,-14.44418 -97.2015,-14.44418 z"
       style="opacity:1;fill:none;fill-opacity:1;stroke:#ffffff;stroke-width:2.88600016;stroke-linecap:round;stroke-linejoin:miter;stroke-miterlimit:4;stroke-dasharray:none;stroke-dashoffset:0;stroke-opacity:1;paint-order:normal" />
    <path
       id="rect849-3-1-7"
       d="m 2839.368,-704.86792 c -3.7917,4.8077 -9.2736,14.11979 -8.545,16.41468 0.9334,2.93635 36.9364,-26.92053 48.732,-21.35317 20.8597,9.84586 -8.1616,58.67727 4.8686,68.01405 6.8921,4.93789 20.5806,-11.49111 26.7599,-18.50976 5.0357,-5.71761 7.8754,-5.05583 4.6858,2.409 -5.469,12.80496 -25.9602,34.40776 -39.2507,29.01293 -16.4465,-6.67535 6.3658,-60.07739 -3.6981,-65.88773 -6.604,-3.81345 -34.5806,13.72869 -44.6712,28.14958 -3.7134,5.30584 -3.9121,6.76289 -4.0983,18.98952 -0.2781,19.7346 -6.4403,25.99616 -14.3968,11.72552 -3.3334,-5.97788 -3.6885,-8.90218 -4.5143,-15.79738 -0.964,-8.06772 1.2534,-16.79502 3.2319,-24.93918 1.822,-7.46238 4.108,-14.96251 7.8827,-21.65169 3.3451,-5.92952 7.9061,-12.09279 12.8161,-15.90353 15.874,-12.31768 28.0215,-13.28256 10.1974,9.32716 z"
       style="opacity:1;fill:none;fill-opacity:1;stroke:#ffffff;stroke-width:2.88600016;stroke-linecap:round;stroke-linejoin:miter;stroke-miterlimit:4;stroke-dasharray:none;stroke-dashoffset:0;stroke-opacity:1;paint-order:normal" />
    <path
       id="rect831-7-4"
       d="m 2814.726,-675.31021 c 0,0 -10.11,44.07594 -28.1251,46.95703 -11.1033,1.77518 -20.1322,-12.20793 -25.4952,-22.09116 -8.393,-15.46995 -3.1654,-48.51333 -7.2387,-52.303 -4.0685,-3.78966 -17.7504,-1.36673 -25.7496,1.80599 -8.5336,3.38649 -17.0075,9.33245 -21.3271,17.43558 -4.7045,8.82713 -7.3455,20.95756 -2.8188,29.8774 4.526,8.91962 15.0711,16.10104 25.0467,15.36113 13.5279,-1.00562 33.6423,-17.78943 33.6423,-17.78943 0,0 3.5559,2.81572 3.0356,4.56916 -0.061,0.31838 -10.9393,10.46562 -17.3195,14.43935 -5.7169,3.56127 -11.8183,7.09497 -18.4585,8.22468 -7.6115,1.29267 -15.9468,1.04279 -23.0823,-1.90046 -7.4467,-3.07236 -14.7672,-9.15926 -18.475,-15.57696 -7.4708,-12.93256 -5.5814,-33.07577 2.1739,-46.52586 4.0726,-7.06318 11.0912,-12.29104 17.8656,-16.90871 5.7395,-3.91066 11.6063,-7.08499 18.8611,-8.84527 14.159,-3.43589 33.3739,-6.30804 43.5076,4.15952 13.0781,13.50978 0.1088,37.80445 3.5425,56.29692 2.1888,11.90054 5.1785,16.33226 11.8586,16.16175 13.7809,-0.35103 22.7305,-34.54903 22.7305,-34.54903 z"
       style="opacity:1;fill:none;fill-opacity:1;stroke:#ffffff;stroke-width:2.88600016;stroke-linecap:round;stroke-linejoin:miter;stroke-miterlimit:4;stroke-dasharray:none;stroke-dashoffset:0;stroke-opacity:1;paint-order:normal" />
    <path
       id="rect828-6-9"
       d="m 2590.9139,-770.89562 c 1.0893,-1.59343 12.9846,-24.90207 25.0978,-28.92492 15.0167,-4.98616 30.6229,11.60755 46.3751,10.12224 15.8053,-1.48989 38.2146,-11.96506 43.813,-18.67495 2.1179,-2.52865 5.6202,-6.91741 0.4732,-9.86734 -5.1474,-2.95005 -16.0786,7.4278 -21.5311,14.03447 -12.4172,15.04598 -16.1637,27.97161 -22.0825,54.19931 -5.9167,26.22768 -4.3663,69.3035 -3.6856,103.97787 0.69,35.51267 6.1602,66.3195 7.9428,106.26204 1.5117,33.76276 -0.6686,52.75267 -10.5899,75.70336 -6.3206,14.63659 -22.4709,31.17723 -38.8744,30.29347 -23.262,-1.25183 -42.0151,-26.81582 -50.1904,-48.62757 -10.1522,-27.07116 -4.48,-60.00734 7.256,-86.42993 25.4578,-57.32221 128.5539,-137.40136 128.5539,-137.40136 l 2.6599,5.02066 c 0,0 -97.0064,80.4232 -121.3599,136.11963 -10.8679,24.85115 -17.3332,55.59081 -7.8211,80.99232 5.9233,15.82565 19.9126,34.94162 36.8118,34.85508 11.5244,-0.0484 19.948,-13.60355 24.8604,-24.02907 10.2953,-21.8372 7.5857,-47.65739 5.675,-72.20167 -2.6587,-34.13859 -6.3528,-68.27489 -6.5576,-102.51613 -0.137,-34.51614 -2.8933,-75.79663 5.3808,-103.41018 8.2708,-27.61385 17.9184,-44.37804 35.0912,-59.88012 12.7001,-11.46403 33.461,-20.62845 41.6512,-13.84259 8.1907,6.78594 4.6517,14.08239 -0.8048,20.04532 -8.2036,8.95989 -36.3426,20.13648 -56.4172,21.41826 -15.7691,1.00546 -30.8442,-15.17914 -46.0978,-11.05186 -11.3076,3.0593 -21.1667,18.61406 -25.3795,24.30563 0,0 -0.2338,-0.44494 -0.2338,-0.4887 z"
       style="opacity:1;fill:none;fill-opacity:1;stroke:#ffffff;stroke-width:2.88600016;stroke-linecap:round;stroke-linejoin:miter;stroke-miterlimit:4;stroke-dasharray:none;stroke-dashoffset:0;stroke-opacity:1;paint-order:normal" />
    <rect
       y="-197.737"
       x="385.1239"
       height="285.75"
       width="507.99997"
       id="rect835"
       style="opacity:0;fill:#4d4d4d;fill-opacity:1;stroke:none;stroke-width:0.40875101;stroke-linecap:round;stroke-linejoin:miter;stroke-miterlimit:4;stroke-dasharray:none;stroke-dashoffset:0;stroke-opacity:1;paint-order:normal" />
    <path
       id="rect849-5"
       d="m 689.52993,-41.703489 c -1.14391,1.216115 -2.85497,3.615653 -2.7112,4.256404 0.18165,0.819987 6.16689,-7.045045 9.26472,-5.296207 2.26634,1.279583 -2.05543,6.479621 0.18234,7.806159 2.19446,1.299833 4.94944,-1.757003 6.79531,-3.516937 1.50341,-1.433669 2.25902,-1.186388 1.21535,0.765833 -1.79089,3.348879 -6.61309,7.485002 -9.76127,5.874395 -3.0123,-1.540967 1.05213,-7.299593 -0.39503,-7.877274 -0.97796,-0.390637 -6.69907,4.641908 -8.5225,8.114995 -1.08404,2.063963 -1.40565,4.035072 -1.09451,6.907811 0.42405,3.900005 -1.1287,7.262372 -3.76848,2.392809 -1.06077,-1.958284 -1.16443,-4.020975 -1.22548,-5.914139 -0.0706,-2.21501 0.3202,-4.455919 0.95346,-6.579262 0.59929,-2.007083 1.47193,-3.967318 2.65622,-5.694899 1.04998,-1.531416 2.43518,-3.097469 3.86002,-4.016092 4.60541,-2.969073 7.92818,-2.942519 2.54864,2.776404 z"
       style="opacity:1;fill:none;fill-opacity:1;stroke:#ffffff;stroke-width:0.59479129;stroke-linecap:round;stroke-linejoin:miter;stroke-miterlimit:4;stroke-dasharray:none;stroke-dashoffset:0;stroke-opacity:1;paint-order:normal" />
    <path
       id="rect880-5"
       d="m 672.92002,-43.342338 c -1.39019,-0.273529 -3.20391,1.005524 -4.11444,2.282697 -1.86173,2.61098 -3.61514,6.92521 -1.66944,9.473868 0.7635,0.999718 2.63901,0.923201 3.75735,0.347578 2.25811,-1.16298 3.56815,-4.058262 3.83486,-6.584052 0.19327,-1.836908 0.11196,-5.4028 -1.72875,-5.264786 -0.33981,0.01828 -0.39862,0.754753 -0.16905,1.010823 2.69584,3.05018 12.20011,-0.541892 12.20011,-0.541892 l -1.8289,3.595611 c 0,0 -11.49891,0.751945 -12.65197,-3.465927 -0.37288,-1.362645 1.54975,-3.240275 2.94883,-3.043695 2.81328,0.395746 4.19186,4.683248 4.01401,7.518693 -0.26802,4.261038 -4.63123,9.381769 -7.39767,10.455718 -2.27066,0.881487 -5.57257,-0.177071 -6.80995,-2.220218 -2.57064,-4.241536 -0.92563,-11.048518 2.45796,-14.674762 2.06091,-2.208506 5.39325,-2.357975 7.51704,-1.445573 4.07814,1.751861 -0.27726,1.699416 -0.35925,2.555742 v 4.13e-4 z"
       style="opacity:1;fill:none;fill-opacity:1;stroke:#ffffff;stroke-width:0.59479129;stroke-linecap:round;stroke-linejoin:miter;stroke-miterlimit:4;stroke-dasharray:none;stroke-dashoffset:0;stroke-opacity:1;paint-order:normal" />
    <path
       id="rect875-9"
       d="m 663.24978,-40.494385 1.2152,3.38584 c 0,0 -4.2662,10.047972 -8.62376,9.842594 -5.31599,-0.24866 -4.15597,-11.76845 -9.34638,-12.944531 -1.79212,-0.406019 -3.8757,1.076358 -4.83823,2.641696 -1.19533,1.944463 -1.98109,5.398885 -0.21321,6.844018 1.15946,0.948342 3.25134,-0.03256 4.3745,-1.028074 11.64734,-10.276954 13.04052,-36.386353 16.2275,-43.683013 1.69684,-3.885779 6.37395,-4.416498 5.14173,0.92334 -1.43687,6.227639 -7.39211,38.672389 -22.75403,46.595772 -2.29315,1.182801 -6.19496,0.875539 -7.63638,-1.264399 -2.77434,-4.118549 -0.0714,-10.860218 3.26619,-14.534797 1.74744,-1.922177 4.96948,-3.324416 7.406,-2.424414 5.63129,2.079753 3.36274,15.274455 9.36424,15.382344 3.88633,0.06778 6.41789,-9.736376 6.41789,-9.736376 z"
       style="opacity:1;fill:none;fill-opacity:1;stroke:#ffffff;stroke-width:0.59479129;stroke-linecap:round;stroke-linejoin:miter;stroke-miterlimit:4;stroke-dasharray:none;stroke-dashoffset:0;stroke-opacity:1;paint-order:normal" />
    <path
       id="rect872-1"
       d="m 622.87782,-35.251453 0.37634,-1.472219 c 0,0 4.72676,-0.551235 6.21788,-2.160962 0.84772,-0.915078 1.82759,-2.726875 0.95536,-3.618229 -1.17922,-1.204537 -3.78111,-0.06063 -4.91565,1.185922 -1.42416,1.56465 -1.59044,4.281589 -0.90311,6.282526 0.60702,1.767485 2.17089,3.918727 4.03927,3.887796 4.40457,-0.0701 9.21396,-9.473048 9.21396,-9.473048 l 0.63095,2.185857 c -0.21381,0.399423 -4.56837,10.834685 -9.4223,11.140939 -4.04416,0.255855 -8.11109,-4.258805 -8.95308,-8.222136 -0.69191,-3.256406 1.30157,-7.177351 3.97356,-9.162573 2.37248,-1.762441 6.82804,-3.224202 8.80622,-1.028812 1.85684,2.060208 0.0873,6.102971 -1.81637,8.119391 -1.95202,2.066987 -5.73987,2.668159 -8.20287,2.335548 z"
       style="opacity:1;fill:none;fill-opacity:1;stroke:#ffffff;stroke-width:0.59479129;stroke-linecap:round;stroke-linejoin:miter;stroke-miterlimit:4;stroke-dasharray:none;stroke-dashoffset:0;stroke-opacity:1;paint-order:normal" />
    <path
       id="rect869-2"
       d="m 573.96639,-40.930157 v -0.366291 c 0,0 9.6808,4.210819 19.89882,2.311543 8.37605,-1.556882 15.98321,-6.768982 22.34569,-12.443947 4.73599,-4.22402 9.46017,-10.561613 11.0964,-15.469624 0.64846,-1.945069 1.79313,-5.289579 -0.49663,-6.130923 -5.87508,-2.158527 -11.01931,7.652718 -13.94862,12.719121 -4.11253,7.113967 -6.16324,15.0625 -8.0027,23.748783 -1.84064,8.685951 -4.90726,27.2735113 -0.69547,28.6211033 4.04691,1.295033 5.86594,-5.2221983 7.0225,-13.4420753 1.15654,-8.220185 -2.52465,-17.68417 -0.75073,-18.79969 1.73847,-1.093402 1.91631,1.26371 4.72743,2.372808 2.90556,1.146171 4.91159,0.870483 4.91159,0.870483 l 0.98934,3.144622 c 0,0 -4.13596,-1.91374 -5.64908,-0.607627 -2.05751,1.776489 -1.93525,5.225247 -1.5952,10.128667 0.61656,8.880171 -4.31901,22.8248677 -11.41585,19.7389447 -4.02589,-1.750273 -4.29275,-9.3311037 -4.39176,-14.3240707 -0.33616,-16.970657 3.75934,-34.990494 12.98504,-49.238428 3.329,-5.14124 8.42897,-9.782824 14.2944,-11.545474 3.40045,-1.021778 10.69846,1.658398 6.50104,10.838058 -3.40509,7.447158 -8.91994,14.080218 -15.25162,19.283705 -6.52296,5.36125 -14.13693,10.308873 -22.536,11.567416 -10.30497,1.54414 -20.03278,-2.97688 -20.03278,-2.97688 z"
       style="opacity:1;fill:none;fill-opacity:1;stroke:#ffffff;stroke-width:0.59479129;stroke-linecap:round;stroke-linejoin:miter;stroke-miterlimit:4;stroke-dasharray:none;stroke-dashoffset:0;stroke-opacity:1;paint-order:normal" />
    <path
       id="rect849-3-1"
       d="m 633.37998,-103.34086 c -0.78143,0.99085 -1.91124,2.91002 -1.76106,3.382991 0.19236,0.605166 7.6124,-5.548201 10.04342,-4.400791 4.29909,2.02919 -1.68207,12.093114 1.00339,14.017384 1.42044,1.017671 4.24159,-2.368269 5.51509,-3.814778 1.03786,-1.17837 1.62311,-1.04199 0.96575,0.49648 -1.12714,2.639048 -5.3503,7.091283 -8.08941,5.979433 -3.38955,-1.375759 1.31196,-12.381669 -0.76216,-13.579159 -1.36106,-0.78593 -7.12691,2.829427 -9.20651,5.801506 -0.76532,1.09351 -0.80626,1.3938 -0.84464,3.913648 -0.0573,4.067207 -1.32731,5.357688 -2.96711,2.416573 -0.687,-1.232013 -0.76019,-1.834693 -0.93038,-3.255762 -0.19868,-1.662719 0.25832,-3.461379 0.66608,-5.139858 0.3755,-1.53795 0.84664,-3.083697 1.62459,-4.462307 0.68941,-1.22204 1.62941,-2.49227 2.64133,-3.27764 3.27154,-2.53862 5.77509,-2.73748 2.10162,1.92228 z"
       style="opacity:1;fill:none;fill-opacity:1;stroke:#ffffff;stroke-width:0.59479129;stroke-linecap:round;stroke-linejoin:miter;stroke-miterlimit:4;stroke-dasharray:none;stroke-dashoffset:0;stroke-opacity:1;paint-order:normal" />
    <path
       id="rect831-7"
       d="m 628.30138,-97.249153 c 0,0 -2.0836,9.083845 -5.79644,9.677625 -2.28834,0.365858 -4.14915,-2.515998 -5.25444,-4.552888 -1.72976,-3.188278 -0.65237,-9.998364 -1.49186,-10.779404 -0.8385,-0.78103 -3.65828,-0.28167 -5.30688,0.37221 -1.75873,0.69794 -3.50516,1.92338 -4.39541,3.593387 -0.96958,1.81924 -1.51388,4.319259 -0.58094,6.157598 0.93279,1.838289 3.10608,3.318349 5.16201,3.165859 2.78804,-0.20726 6.93352,-3.666319 6.93352,-3.666319 0,0 0.73285,0.5803 0.62562,0.941679 -0.0125,0.0656 -2.25453,2.15691 -3.56947,2.97588 -1.17823,0.733964 -2.43569,1.462245 -3.80421,1.695073 -1.5687,0.266411 -3.28656,0.214912 -4.75715,-0.391676 -1.53473,-0.6332 -3.04346,-1.887677 -3.80762,-3.210337 -1.5397,-2.665338 -1.15029,-6.816767 0.44804,-9.588764 0.83934,-1.45569 2.28584,-2.53313 3.68201,-3.48481 1.18288,-0.80596 2.39201,-1.46018 3.88719,-1.82297 2.91811,-0.70812 6.87821,-1.30005 8.96672,0.85726 2.69533,2.7843 0.0224,7.791327 0.73009,11.602536 0.4511,2.452648 1.06726,3.365998 2.444,3.330858 2.84018,-0.0724 4.68465,-7.120397 4.68465,-7.120397 z"
       style="opacity:1;fill:none;fill-opacity:1;stroke:#ffffff;stroke-width:0.59479129;stroke-linecap:round;stroke-linejoin:miter;stroke-miterlimit:4;stroke-dasharray:none;stroke-dashoffset:0;stroke-opacity:1;paint-order:normal" />
    <path
       id="rect828-6"
       d="m 582.17476,-116.94887 c 0.2245,-0.32839 2.67606,-5.1322 5.17254,-5.96129 3.09487,-1.02762 6.31123,2.39226 9.55769,2.08615 3.2574,-0.30706 7.87585,-2.46595 9.02966,-3.84882 0.43649,-0.52114 1.15829,-1.42565 0.0975,-2.03362 -1.06085,-0.60799 -3.31373,1.53084 -4.43746,2.89244 -2.55912,3.10091 -3.33126,5.76482 -4.5511,11.17023 -1.21941,5.40541 -0.89988,14.283137 -0.75959,21.429364 0.14221,7.318993 1.26959,13.668141 1.63698,21.900112 0.31156,6.958351 -0.13779,10.872089 -2.18253,15.602117 -1.30265,3.016532 -4.63115,6.42548 -8.01183,6.243344 -4.7942,-0.257997 -8.65913,-5.526618 -10.34401,-10.021915 -2.09233,-5.579245 -0.92331,-12.367238 1.49542,-17.812815 5.24674,-11.813844 26.49437,-28.317787 26.49437,-28.317787 l 0.54819,1.03474 c 0,0 -19.99257,16.574846 -25.01171,28.053623 -2.23982,5.12171 -3.5723,11.457013 -1.61189,16.692144 1.22076,3.261598 4.10389,7.201308 7.58674,7.183474 2.37512,-0.01 4.11118,-2.803631 5.12361,-4.952283 2.12182,-4.500547 1.56338,-9.821964 1.16959,-14.880431 -0.54794,-7.035807 -1.30928,-14.07114 -1.35149,-21.128103 -0.0282,-7.113617 -0.5963,-15.621334 1.10896,-21.312364 1.70458,-5.69108 3.6929,-9.14611 7.23214,-12.34101 2.61742,-2.36269 6.89615,-4.25144 8.58411,-2.8529 1.68807,1.39856 0.9587,2.90232 -0.16586,4.13125 -1.69072,1.8466 -7.49004,4.15003 -11.62733,4.4142 -3.24994,0.20723 -6.35685,-3.12835 -9.50054,-2.27774 -2.33045,0.63051 -4.36236,3.83628 -5.2306,5.00929 0,0 -0.0482,-0.0917 -0.0482,-0.10072 z"
       style="opacity:1;fill:none;fill-opacity:1;stroke:#ffffff;stroke-width:0.59479129;stroke-linecap:round;stroke-linejoin:miter;stroke-miterlimit:4;stroke-dasharray:none;stroke-dashoffset:0;stroke-opacity:1;paint-order:normal" />
    <path
       id="rect828"
       d="m 581.05467,-117.57398 c 0.22326,-0.32834 2.6759,-5.13222 5.1728,-5.96132 3.09494,-1.02761 6.31108,2.39228 9.55776,2.08617 3.25734,-0.307 7.87546,-2.46597 9.02927,-3.84886 0.43622,-0.5211 1.15836,-1.42562 0.0971,-2.03359 -1.05986,-0.60799 -3.31274,1.53081 -4.4368,2.89245 -2.55886,3.10093 -3.33124,5.76483 -4.55067,11.17026 -1.22,5.40536 -0.90006,14.283107 -0.7601,21.429344 0.14163,7.318951 1.27,13.668125 1.63706,21.900103 0.31056,6.958336 -0.13788,10.87208 -2.18234,15.602118 -1.30307,3.016515 -4.63126,6.425472 -8.01233,6.243351 -4.79364,-0.258185 -8.65865,-5.52665 -10.34354,-10.021948 -2.09214,-5.579238 -0.92315,-12.367223 1.49543,-17.812814 5.2464,-11.813828 26.49437,-28.317764 26.49437,-28.317764 l 0.54821,1.03475 c 0,0 -19.99252,16.574838 -25.01191,28.053615 -2.23966,5.121702 -3.57177,11.457029 -1.61212,16.692111 1.22108,3.261648 4.10421,7.201349 7.58689,7.183472 2.37532,-0.01 4.11119,-2.803588 5.12389,-4.95224 2.12129,-4.50058 1.56345,-9.821963 1.1694,-14.880464 -0.54786,-7.035807 -1.3092,-14.071107 -1.35139,-21.1281 -0.0283,-7.113577 -0.59604,-15.621324 1.10869,-21.312374 1.70433,-5.69106 3.6929,-9.14607 7.2323,-12.34098 2.61776,-2.36268 6.89608,-4.25143 8.58406,-2.85288 1.68829,1.39854 0.95876,2.90233 -0.16589,4.13124 -1.69045,1.8466 -7.49021,4.15 -11.6274,4.41417 -3.24976,0.20728 -6.35691,-3.12834 -9.50069,-2.27772 -2.33003,0.63052 -4.36238,3.83628 -5.22988,5.00929 0,0 -0.0481,-0.0918 -0.0481,-0.10074 z"
       style="opacity:1;fill:#ffffff;fill-opacity:1;stroke:none;stroke-width:0.59479129;stroke-linecap:round;stroke-linejoin:miter;stroke-miterlimit:4;stroke-dasharray:none;stroke-dashoffset:0;stroke-opacity:1;paint-order:normal" />
    <path
       id="rect831"
       d="m 627.18129,-97.874313 c 0,0 -2.08317,9.083885 -5.7966,9.677658 -2.28842,0.365892 -4.14874,-2.516011 -5.25386,-4.55286 -1.72999,-3.188319 -0.65312,-9.998405 -1.49162,-10.779435 -0.83866,-0.78102 -3.659,-0.28165 -5.30726,0.37222 -1.7589,0.69787 -3.50527,1.92332 -4.39519,3.593317 -0.97049,1.81929 -1.51429,4.319319 -0.58092,6.157588 0.93252,1.838279 3.10581,3.318399 5.16166,3.165859 2.78844,-0.2072 6.93321,-3.666288 6.93321,-3.666288 0,0 0.733,0.580289 0.62593,0.941729 -0.0124,0.0656 -2.25469,2.156869 -3.56897,2.975859 -1.17905,0.733944 -2.43609,1.462224 -3.80478,1.695002 -1.56877,0.266386 -3.28647,0.214947 -4.75734,-0.391707 -1.53445,-0.633251 -3.04318,-1.887685 -3.80734,-3.210335 -1.54013,-2.665328 -1.15065,-6.816777 0.44778,-9.588784 0.83949,-1.45567 2.28558,-2.53313 3.68243,-3.48482 1.18262,-0.80593 2.39191,-1.46018 3.88711,-1.82296 2.91791,-0.70808 6.87862,-1.30003 8.96678,0.85723 2.69541,2.78434 0.0224,7.791347 0.73011,11.602576 0.45102,2.452678 1.06716,3.365988 2.44357,3.330888 2.8402,-0.0722 4.68473,-7.120397 4.68473,-7.120397 z"
       style="opacity:1;fill:#ffffff;fill-opacity:1;stroke:none;stroke-width:0.59479129;stroke-linecap:round;stroke-linejoin:miter;stroke-miterlimit:4;stroke-dasharray:none;stroke-dashoffset:0;stroke-opacity:1;paint-order:normal" />
    <path
       id="rect849-3"
       d="m 632.26024,-103.96597 c -0.78136,0.99082 -1.91141,2.91 -1.76114,3.38296 0.19078,0.605221 7.61238,-5.54818 10.04317,-4.40077 4.29899,2.0292 -1.68231,12.093115 1.00346,14.017394 1.42068,1.01769 4.24161,-2.368309 5.51543,-3.814798 1.03752,-1.17835 1.62277,-1.04198 0.96534,0.49648 -1.12723,2.639088 -5.34988,7.091312 -8.08949,5.979445 -3.38932,-1.375787 1.31186,-12.381671 -0.7621,-13.579151 -1.36136,-0.78594 -7.12715,2.829377 -9.20634,5.801476 -0.76524,1.09351 -0.80635,1.3938 -0.84473,3.913648 -0.059,4.067254 -1.32714,5.357675 -2.96736,2.41657 -0.68683,-1.23199 -0.7595,-1.83469 -0.93038,-3.255769 -0.19676,-1.662709 0.25859,-3.461319 0.6665,-5.139858 0.37602,-1.53794 0.84664,-3.083657 1.62417,-4.462277 0.68983,-1.22206 1.62925,-2.49227 2.64153,-3.27766 3.27168,-2.53863 5.77489,-2.73744 2.10194,1.92231 z"
       style="opacity:1;fill:#ffffff;fill-opacity:1;stroke:none;stroke-width:0.59479129;stroke-linecap:round;stroke-linejoin:miter;stroke-miterlimit:4;stroke-dasharray:none;stroke-dashoffset:0;stroke-opacity:1;paint-order:normal" />
    <path
       id="rect849"
       d="m 688.7652,-42.396154 c -1.14419,1.2161 -2.85533,3.615638 -2.71162,4.256422 0.18264,0.819979 6.16728,-7.04507 9.26456,-5.296241 2.26699,1.279583 -2.05494,6.479621 0.18224,7.806175 2.19456,1.299826 4.94919,-1.757026 6.79481,-3.516952 1.50374,-1.433645 2.25951,-1.186371 1.21543,0.765849 -1.79037,3.348871 -6.61273,7.484861 -9.76109,5.874428 -3.01248,-1.540992 1.05238,-7.299634 -0.39529,-7.877323 -0.97813,-0.390638 -6.69897,4.641907 -8.52275,8.115011 -1.08352,2.063889 -1.4059,4.03503 -1.09391,6.907727 0.42451,3.900073 -1.12914,7.262149 -3.76833,2.392893 -1.06135,-1.958374 -1.16502,-4.021257 -1.22623,-5.914131 -0.0689,-2.214911 0.32227,-4.455943 0.95362,-6.579278 0.59954,-2.007067 1.47202,-3.967318 2.65639,-5.694899 1.04972,-1.531408 2.43477,-3.097461 3.86002,-4.016085 4.60549,-2.96908 7.92826,-2.942519 2.54864,2.776404 z"
       style="opacity:1;fill:#ffffff;fill-opacity:1;stroke:none;stroke-width:0.59479129;stroke-linecap:round;stroke-linejoin:miter;stroke-miterlimit:4;stroke-dasharray:none;stroke-dashoffset:0;stroke-opacity:1;paint-order:normal" />
    <path
       id="rect869"
       d="m 573.20165,-41.622846 v -0.366275 c 0,0 9.67987,4.210863 19.89822,2.311536 8.37605,-1.556866 15.98338,-6.76899 22.3462,-12.443939 4.73591,-4.224002 9.46009,-10.561605 11.09614,-15.469617 0.64846,-1.945077 1.79313,-5.289586 -0.49661,-6.130938 -5.87502,-2.15852 -11.0199,7.652726 -13.94847,12.719137 -4.11287,7.113958 -6.16339,15.062516 -8.00303,23.748775 -1.84013,8.686024 -4.90726,27.2733687 -0.69498,28.6211873 4.04682,1.294807 5.8657,-5.2220663 7.02258,-13.4423343 1.15613,-8.219994 -2.52523,-17.683995 -0.75095,-18.799515 1.73855,-1.093394 1.91604,1.263726 4.72744,2.372808 2.9053,1.14617 4.91115,0.870483 4.91115,0.870483 l 0.98926,3.14463 c 0,0 -4.13579,-1.913756 -5.64859,-0.607619 -2.05792,1.776473 -1.93483,5.225365 -1.59501,10.128475 0.61614,8.880722 -4.3196,22.8250677 -11.41635,19.7390467 -4.02572,-1.7501174 -4.29278,-9.3312387 -4.39171,-14.3242297 -0.33613,-16.970416 3.75986,-34.990261 12.98513,-49.238212 3.32959,-5.141215 8.42873,-9.782807 14.2945,-11.545457 3.40036,-1.021802 10.69871,1.658398 6.50112,10.838057 -3.40552,7.447167 -8.92037,14.080218 -15.25169,19.283713 -6.52362,5.361243 -14.13726,10.308875 -22.53575,11.567391 -10.30515,1.54415 -20.0332,-2.976854 -20.0332,-2.976854 z"
       style="opacity:1;fill:#ffffff;fill-opacity:1;stroke:none;stroke-width:0.59479129;stroke-linecap:round;stroke-linejoin:miter;stroke-miterlimit:4;stroke-dasharray:none;stroke-dashoffset:0;stroke-opacity:1;paint-order:normal" />
    <path
       id="rect872"
       d="m 622.11289,-35.944126 0.37627,-1.472202 c 0,0 4.72711,-0.551251 6.21821,-2.160978 0.84765,-0.915078 1.82794,-2.72685 0.95529,-3.618221 -1.17913,-1.204554 -3.78103,-0.06063 -4.91556,1.18594 -1.42424,1.564623 -1.5903,4.281555 -0.90338,6.282508 0.60718,1.767477 2.17116,3.918645 4.0397,3.887763 4.40423,-0.07127 9.21347,-9.473006 9.21347,-9.473006 l 0.63111,2.185831 c -0.21473,0.399449 -4.56846,10.835034 -9.42231,11.140882 -4.04417,0.256768 -8.1115,-4.258696 -8.95332,-8.22207 -0.69182,-3.256414 1.30155,-7.177343 3.97422,-9.162598 2.3724,-1.762409 6.82755,-3.224161 8.80615,-1.02877 1.8565,2.060207 0.0867,6.102954 -1.81647,8.119374 -1.95236,2.066986 -5.74036,2.668158 -8.20295,2.335547 z"
       style="opacity:1;fill:#ffffff;fill-opacity:1;stroke:none;stroke-width:0.59479129;stroke-linecap:round;stroke-linejoin:miter;stroke-miterlimit:4;stroke-dasharray:none;stroke-dashoffset:0;stroke-opacity:1;paint-order:normal" />
    <path
       id="rect875"
       d="m 662.48529,-41.187065 1.21494,3.38584 c 0,0 -4.26653,10.04798 -8.62383,9.842802 -5.31616,-0.249135 -4.1563,-11.768659 -9.34654,-12.944749 -1.79204,-0.406009 -3.87573,1.076359 -4.83807,2.641713 -1.19517,1.944455 -1.98118,5.398803 -0.21255,6.843869 1.15945,0.948492 3.25118,-0.03256 4.37434,-1.027957 11.64742,-10.276938 13.04068,-36.386321 16.22757,-43.682972 1.6971,-3.885788 6.37396,-4.416506 5.14215,0.923348 -1.43712,6.227622 -7.39252,38.672383 -22.75436,46.59598 -2.29282,1.182617 -6.19471,0.875158 -7.63649,-1.264799 -2.77406,-4.118355 -0.0739,-10.860035 3.26647,-14.534605 1.74711,-1.922202 4.96939,-3.32444 7.40616,-2.424438 5.63113,2.07976 3.36231,15.274471 9.36415,15.382245 3.88643,0.06786 6.41773,-9.736277 6.41773,-9.736277 z"
       style="opacity:1;fill:#ffffff;fill-opacity:1;stroke:none;stroke-width:0.59479129;stroke-linecap:round;stroke-linejoin:miter;stroke-miterlimit:4;stroke-dasharray:none;stroke-dashoffset:0;stroke-opacity:1;paint-order:normal" />
    <path
       id="rect880"
       d="m 672.15543,-44.035018 c -1.3901,-0.273546 -3.20425,1.005531 -4.11492,2.282697 -1.86133,2.610987 -3.61492,6.925218 -1.66912,9.473909 0.76333,0.999717 2.63902,0.923151 3.7572,0.348559 2.25794,-1.162848 3.5682,-4.058188 3.83459,-6.58398 0.19304,-1.836889 0.11298,-5.402822 -1.72826,-5.264784 -0.34146,0.01828 -0.39861,0.754761 -0.16894,1.010823 2.69567,3.050197 12.19995,-0.5419 12.19995,-0.5419 l -1.82875,3.595619 c 0,0 -11.49883,0.751945 -12.65238,-3.465952 -0.37279,-1.362594 1.54976,-3.240234 2.94908,-3.043662 2.81345,0.395738 4.19177,4.683232 4.01377,7.518709 -0.26838,4.260998 -4.63084,9.38202 -7.39734,10.455851 -2.27066,0.88133 -5.57284,-0.176264 -6.8102,-2.220251 -2.57042,-4.241661 -0.92547,-11.048617 2.45829,-14.67487 2.06075,-2.20849 5.39324,-2.357983 7.51704,-1.44558 4.07796,1.751885 -0.27786,1.699399 -0.35925,2.55575 v 2.06e-4 z"
       style="opacity:1;fill:#ffffff;fill-opacity:1;stroke:none;stroke-width:0.59479129;stroke-linecap:round;stroke-linejoin:miter;stroke-miterlimit:4;stroke-dasharray:none;stroke-dashoffset:0;stroke-opacity:1;paint-order:normal" />
    <path
       id="rect828-2"
       d="m 2585.4791,-773.92877 c 1.0833,-1.59311 12.9838,-24.90215 25.0991,-28.92504 15.017,-4.98608 30.6221,11.60766 46.3754,10.12236 15.805,-1.48961 38.2127,-11.96519 43.8111,-18.67516 2.1166,-2.52844 5.6205,-6.91724 0.4711,-9.86721 -5.1426,-2.95005 -16.0738,7.42767 -21.5279,14.03451 -12.4159,15.0461 -16.1636,27.97169 -22.0804,54.19947 -5.9196,26.22748 -4.3672,69.30338 -3.6881,103.97783 0.6872,35.51242 6.1622,66.31939 7.9432,106.26195 1.5069,33.76269 -0.669,52.75265 -10.589,75.70339 -6.3226,14.63648 -22.4714,31.17715 -38.8768,30.29349 -23.2593,-1.25275 -42.0128,-26.81599 -50.1881,-48.62773 -10.1513,-27.07113 -4.4792,-60.00726 7.256,-86.42994 25.4562,-57.32213 128.5539,-137.40123 128.5539,-137.40123 l 2.66,5.0207 c 0,0 -97.0061,80.42316 -121.3608,136.11959 -10.8671,24.85112 -17.3307,55.59088 -7.8222,80.99215 5.9248,15.8259 19.9141,34.94181 36.8125,34.85508 11.5253,-0.0484 19.948,-13.60334 24.8617,-24.02888 10.2928,-21.83736 7.5861,-47.65736 5.6741,-72.2018 -2.6583,-34.1386 -6.3524,-68.27474 -6.5571,-102.51613 -0.1371,-34.51596 -2.8921,-75.7966 5.3795,-103.41027 8.2696,-27.61365 17.9184,-44.3778 35.092,-59.87992 12.7017,-11.46403 33.4606,-20.62841 41.6509,-13.84251 8.1918,6.78586 4.652,14.08243 -0.8049,20.04524 -8.2023,8.95997 -36.3434,20.13636 -56.4176,21.41813 -15.7682,1.00575 -30.8445,-15.17909 -46.0985,-11.05177 -11.3056,3.05938 -21.1668,18.6141 -25.376,24.30567 0,0 -0.2337,-0.44542 -0.2337,-0.48879 z"
       style="opacity:1;fill:#000000;fill-opacity:1;stroke:none;stroke-width:2.88600016;stroke-linecap:round;stroke-linejoin:miter;stroke-miterlimit:4;stroke-dasharray:none;stroke-dashoffset:0;stroke-opacity:1;paint-order:normal" />
    <path
       id="rect831-0"
       d="m 2809.2911,-678.34357 c 0,0 -10.1078,44.07613 -28.1258,46.95719 -11.1037,1.77535 -20.1302,-12.20798 -25.4924,-22.09103 -8.3941,-15.47011 -3.169,-48.51349 -7.2375,-52.30315 -4.0693,-3.78959 -17.7539,-1.36661 -25.7515,1.80603 -8.5344,3.38615 -17.008,9.33223 -21.326,17.43525 -4.7089,8.82741 -7.3475,20.95785 -2.8187,29.87739 4.5247,8.91954 15.0698,16.10125 25.045,15.3611 13.5299,-1.00534 33.6408,-17.78928 33.6408,-17.78928 0,0 3.5566,2.81564 3.0371,4.5694 -0.06,0.3184 -10.94,10.46539 -17.3171,14.43922 -5.7209,3.56121 -11.8202,7.0949 -18.4612,8.22438 -7.6119,1.29254 -15.9464,1.04294 -23.0832,-1.90061 -7.4454,-3.07262 -14.7659,-9.15931 -18.4737,-15.57693 -7.4729,-12.93252 -5.5831,-33.07586 2.1727,-46.52598 4.0733,-7.06311 11.0899,-12.29108 17.8676,-16.9088 5.7382,-3.91045 11.6058,-7.08494 18.8607,-8.84523 14.1581,-3.43569 33.3759,-6.30787 43.5079,4.15944 13.0785,13.50994 0.1088,37.80453 3.5426,56.29708 2.1884,11.90071 5.178,16.33224 11.8565,16.16192 13.781,-0.35024 22.7309,-34.54908 22.7309,-34.54908 z"
       style="opacity:1;fill:#000000;fill-opacity:1;stroke:none;stroke-width:2.88600016;stroke-linecap:round;stroke-linejoin:miter;stroke-miterlimit:4;stroke-dasharray:none;stroke-dashoffset:0;stroke-opacity:1;paint-order:normal" />
    <path
       id="rect849-3-14"
       d="m 2833.9348,-707.90103 c -3.7913,4.80758 -9.2743,14.11967 -8.5453,16.41452 0.9258,2.93663 36.9362,-26.92045 48.7308,-21.35305 20.8592,9.8459 -8.1629,58.67726 4.8688,68.01409 6.8933,4.93796 20.5808,-11.4913 26.7615,-18.50983 5.0342,-5.71754 7.874,-5.05585 4.684,2.40898 -5.4695,12.80517 -25.9583,34.40789 -39.2511,29.01298 -16.4455,-6.67546 6.3653,-60.07739 -3.6979,-65.88769 -6.6055,-3.81349 -34.5818,13.72849 -44.6702,28.14946 -3.7131,5.30585 -3.9125,6.76289 -4.0988,18.98952 -0.2861,19.7348 -6.4394,25.99608 -14.398,11.72547 -3.3326,-5.97776 -3.6852,-8.90213 -4.5143,-15.79737 -0.9547,-8.06767 1.2547,-16.79478 3.2339,-24.93922 1.8245,-7.46229 4.108,-14.96228 7.8807,-21.65153 3.3472,-5.92964 7.9053,-12.09283 12.817,-15.90366 15.8746,-12.31771 28.0206,-13.28234 10.1989,9.32733 z"
       style="opacity:1;fill:#000000;fill-opacity:1;stroke:none;stroke-width:2.88600016;stroke-linecap:round;stroke-linejoin:miter;stroke-miterlimit:4;stroke-dasharray:none;stroke-dashoffset:0;stroke-opacity:1;paint-order:normal" />
    <path
       id="rect849-50"
       d="m 3108.1038,-409.15676 c -5.5517,5.90066 -13.8544,17.54352 -13.1572,20.65266 0.8863,3.97865 29.9244,-34.18353 44.9529,-25.698 10.9997,6.20869 -9.9708,31.43991 0.8841,37.87651 10.6484,6.30692 24.0142,-8.5253 32.9693,-17.06468 7.2964,-6.95621 10.9635,-5.7564 5.8974,3.716 -8.687,16.24912 -32.0858,36.31745 -47.362,28.50343 -14.6168,-7.47707 5.1063,-35.41871 -1.9179,-38.22171 -4.746,-1.89542 -32.5042,22.52308 -41.3534,39.375 -5.2574,10.01424 -6.8216,19.57848 -5.3078,33.51713 2.0598,18.92363 -5.4787,35.23683 -18.2845,11.61063 -5.1497,-9.50227 -5.6527,-19.51165 -5.9497,-28.6961 -0.3346,-10.74701 1.5636,-21.62077 4.627,-31.92346 2.9091,-9.73852 7.1424,-19.2499 12.8891,-27.63235 5.0935,-7.43055 11.8138,-15.02925 18.7293,-19.48651 22.3465,-14.40635 38.4689,-14.27747 12.3663,13.47145 z"
       style="opacity:1;fill:#000000;fill-opacity:1;stroke:none;stroke-width:2.88600016;stroke-linecap:round;stroke-linejoin:miter;stroke-miterlimit:4;stroke-dasharray:none;stroke-dashoffset:0;stroke-opacity:1;paint-order:normal" />
    <path
       id="rect869-23"
       d="m 2547.3753,-405.40457 v -1.77723 c 0,0 46.9679,20.43162 96.5486,11.21587 40.6416,-7.55412 77.5533,-32.84397 108.4265,-60.37951 22.9792,-20.49537 45.9015,-51.2462 53.8398,-75.06047 3.1464,-9.43774 8.7005,-25.66572 -2.4096,-29.74806 -28.5063,-10.4734 -53.4699,37.13194 -67.6797,61.71481 -19.9561,34.51779 -29.9055,73.08515 -38.8317,115.23195 -8.9285,42.14564 -23.8106,132.33367 -3.3721,138.87346 19.6357,6.28255 28.4611,-25.33808 34.0744,-65.22383 5.6097,-39.88441 -12.2527,-85.80488 -3.6437,-91.21754 8.4357,-5.30527 9.2969,6.13177 22.9381,11.51316 14.0969,5.56135 23.8295,4.2237 23.8295,4.2237 l 4.8,15.25812 c 0,0 -20.0673,-9.28579 -27.4076,-2.94825 -9.9853,8.61968 -9.388,25.3541 -7.7392,49.14461 2.9896,43.09033 -20.9592,110.74997 -55.3935,95.77622 -19.5333,-8.49178 -20.8291,-45.27629 -21.3091,-69.50289 -1.631,-82.34251 18.2433,-169.77699 63.0054,-238.90979 16.1556,-24.94581 40.8972,-47.46738 69.3587,-56.01997 16.4989,-4.95791 51.9115,8.04676 31.5443,52.58759 -16.5241,36.13454 -43.2828,68.31891 -74.0032,93.56691 -31.6534,26.01341 -68.5957,50.01991 -109.3462,56.12641 -50.0018,7.49239 -97.2035,-14.44408 -97.2035,-14.44408 z"
       style="opacity:1;fill:#000000;fill-opacity:1;stroke:none;stroke-width:2.88600016;stroke-linecap:round;stroke-linejoin:miter;stroke-miterlimit:4;stroke-dasharray:none;stroke-dashoffset:0;stroke-opacity:1;paint-order:normal" />
    <path
       id="rect872-6"
       d="m 2784.6986,-377.85073 1.8257,-7.1433 c 0,0 22.9365,-2.67475 30.1716,-10.48533 4.1129,-4.44008 8.8693,-13.23102 4.6351,-17.55606 -5.7213,-5.84464 -18.346,-0.29422 -23.8509,5.75432 -6.9106,7.59174 -7.7163,20.77463 -4.3833,30.48349 2.9461,8.57602 10.5347,19.01375 19.6012,18.86392 21.3698,-0.34581 44.7049,-45.96418 44.7049,-45.96418 l 3.0622,10.6059 c -1.0419,1.93818 -22.1668,52.57292 -45.7182,54.05691 -19.6229,1.24587 -39.3581,-20.66369 -43.4427,-39.89448 -3.3568,-15.80052 6.3153,-34.82533 19.2834,-44.45804 11.5112,-8.55142 33.1282,-15.64402 42.7285,-4.99171 9.008,9.99638 0.4209,29.61227 -8.8137,39.39619 -9.473,10.02927 -27.8529,12.94622 -39.8017,11.33237 z"
       style="opacity:1;fill:#000000;fill-opacity:1;stroke:none;stroke-width:2.88600016;stroke-linecap:round;stroke-linejoin:miter;stroke-miterlimit:4;stroke-dasharray:none;stroke-dashoffset:0;stroke-opacity:1;paint-order:normal" />
    <path
       id="rect875-1"
       d="m 2980.5904,-403.29013 5.895,16.42851 c 0,0 -20.7016,48.75403 -41.8438,47.75848 -25.7946,-1.20882 -20.1668,-57.10295 -45.3506,-62.80949 -8.6951,-1.97 -18.8055,5.22261 -23.4748,12.8179 -5.7992,9.43473 -9.613,26.19566 -1.0314,33.2073 5.6258,4.60219 15.7752,-0.15798 21.2249,-4.98779 56.5146,-49.86494 63.275,-176.55086 78.7382,-211.9551 8.2345,-18.8543 30.9272,-21.42942 24.9502,4.4802 -6.973,30.21718 -35.8694,187.64311 -110.4068,226.08937 -11.1251,5.7382 -30.0576,4.24637 -37.0532,-6.13696 -13.4601,-19.98276 -0.3586,-52.69421 15.8493,-70.52366 8.4772,-9.32677 24.112,-16.13058 35.9355,-11.76366 27.3229,10.09123 16.3144,74.11357 45.4361,74.6365 18.8573,0.32927 31.1395,-47.2416 31.1395,-47.2416 z"
       style="opacity:1;fill:#000000;fill-opacity:1;stroke:none;stroke-width:2.88600016;stroke-linecap:round;stroke-linejoin:miter;stroke-miterlimit:4;stroke-dasharray:none;stroke-dashoffset:0;stroke-opacity:1;paint-order:normal" />
    <path
       id="rect880-7"
       d="m 3027.5111,-417.10873 c -6.7448,-1.32728 -15.5473,4.87897 -19.966,11.07591 -9.0314,12.66883 -17.54,33.602 -8.0989,45.96857 3.7039,4.85074 12.8049,4.47924 18.2304,1.69125 10.9559,-5.64227 17.3134,-19.69083 18.606,-31.94627 0.9366,-8.91281 0.5482,-26.21516 -8.3857,-25.54536 -1.6568,0.0887 -1.9341,3.66217 -0.8197,4.90463 13.0797,14.79992 59.1956,-2.62938 59.1956,-2.62938 l -8.8734,17.44639 c 0,0 -55.7936,3.64852 -61.3909,-16.81723 -1.8088,-6.61147 7.5196,-15.722 14.3093,-14.76823 13.6513,1.92019 20.339,22.72364 19.4753,36.48171 -1.3022,20.67488 -22.4694,45.5227 -35.8928,50.73306 -11.0174,4.27633 -27.0401,-0.85524 -33.0438,-10.77294 -12.4721,-20.58103 -4.4906,-53.60921 11.9278,-71.20424 9.999,-10.71586 26.1687,-11.44122 36.4737,-7.01413 19.7867,8.50035 -1.3483,8.24569 -1.7431,12.40081 v 0 z"
       style="opacity:1;fill:#000000;fill-opacity:1;stroke:none;stroke-width:2.88600016;stroke-linecap:round;stroke-linejoin:miter;stroke-miterlimit:4;stroke-dasharray:none;stroke-dashoffset:0;stroke-opacity:1;paint-order:normal" />
    <rect
       y="-912.80481"
       x="3463.2278"
       height="838.15723"
       width="1041.282"
       id="rect3873-8"
       style="opacity:0.6;fill:#000000;fill-opacity:1;stroke:none;stroke-width:2.88600016;stroke-linecap:round;stroke-linejoin:miter;stroke-miterlimit:4;stroke-dasharray:none;stroke-dashoffset:0;stroke-opacity:1;paint-order:normal" />
    <path
       id="rect849-5-2-2"
       d="m 4184.5839,-396.85162 c -5.5504,5.90074 -13.8528,17.54357 -13.1552,20.65258 0.8815,3.97868 29.9225,-34.18339 44.9537,-25.69784 10.9965,6.20869 -9.9732,31.43991 0.8846,37.87643 10.6479,6.30695 24.0153,-8.52519 32.9718,-17.06459 7.2947,-6.95635 10.961,-5.75652 5.897,3.71591 -8.6896,16.24917 -32.0875,36.31814 -47.3629,28.50327 -14.616,-7.47696 5.105,-35.4185 -1.9167,-38.22149 -4.7453,-1.89543 -32.5048,22.5231 -41.3522,39.37494 -5.26,10.01462 -6.8204,19.57867 -5.3108,33.51755 2.0575,18.92329 -5.4765,35.2379 -18.285,11.61018 -5.147,-9.50182 -5.65,-19.51024 -5.9462,-28.6961 -0.3426,-10.7475 1.5535,-21.62066 4.6263,-31.92338 2.9077,-9.73862 7.142,-19.24992 12.8883,-27.63234 5.0946,-7.43064 11.8157,-15.02931 18.7293,-19.48659 22.3459,-14.4063 38.4684,-14.27744 12.3663,13.47147 z"
       style="opacity:1;fill:none;fill-opacity:1;stroke:#393e46;stroke-width:2.88600039;stroke-linecap:round;stroke-linejoin:miter;stroke-miterlimit:4;stroke-dasharray:none;stroke-dashoffset:0;stroke-opacity:1;paint-order:normal" />
    <path
       id="rect880-5-0-9"
       d="m 4103.9906,-404.80351 c -6.7454,-1.3272 -15.5458,4.87892 -19.9639,11.07591 -9.0333,12.6688 -17.541,33.60198 -8.1003,45.96836 3.7047,4.85074 12.8048,4.47948 18.2312,1.68648 10.9566,-5.6429 17.313,-19.69116 18.6071,-31.94661 0.9378,-8.91289 0.5433,-26.21505 -8.388,-25.54539 -1.6488,0.0887 -1.9341,3.66215 -0.8202,4.90464 13.0805,14.79986 59.1963,-2.62933 59.1963,-2.62933 l -8.8741,17.44636 c 0,0 -55.794,3.64853 -61.3888,-16.8171 -1.8093,-6.61172 7.5196,-15.72223 14.308,-14.76838 13.6505,1.92022 20.3394,22.72369 19.4766,36.4816 -1.3006,20.6751 -22.4713,45.52148 -35.8945,50.73242 -11.0174,4.27707 -27.0388,-0.85918 -33.0427,-10.77277 -12.473,-20.58046 -4.4913,-53.60874 11.9263,-71.20372 9.9998,-10.71594 26.1687,-11.44119 36.4737,-7.0141 19.7876,8.50024 -1.3453,8.24577 -1.7431,12.40078 v 0.003 z"
       style="opacity:1;fill:none;fill-opacity:1;stroke:#393e46;stroke-width:2.88600039;stroke-linecap:round;stroke-linejoin:miter;stroke-miterlimit:4;stroke-dasharray:none;stroke-dashoffset:0;stroke-opacity:1;paint-order:normal" />
    <path
       id="rect875-9-4-1"
       d="m 4057.0693,-390.9849 5.8963,16.4285 c 0,0 -20.7001,48.75398 -41.8434,47.75745 -25.794,-1.20652 -20.1653,-57.10195 -45.3498,-62.80843 -8.6956,-1.97006 -18.8055,5.22261 -23.4758,12.81782 -5.7999,9.43478 -9.6124,26.19605 -1.0344,33.20801 5.6257,4.60148 15.7758,-0.15798 21.2255,-4.98832 56.5144,-49.86504 63.2742,-176.55101 78.7378,-211.9553 8.2334,-18.85426 30.9272,-21.42937 24.9484,4.48016 -6.972,30.21727 -35.8674,187.64314 -110.4054,226.08834 -11.1267,5.7391 -30.0587,4.24823 -37.0527,-6.135 -13.4613,-19.98371 -0.3466,-52.6951 15.8481,-70.52461 8.4787,-9.32664 24.1124,-16.13048 35.9347,-11.76356 27.3237,10.09121 16.3164,74.11353 45.4365,74.637 18.8569,0.32888 31.1404,-47.24206 31.1404,-47.24206 z"
       style="opacity:1;fill:none;fill-opacity:1;stroke:#393e46;stroke-width:2.88600039;stroke-linecap:round;stroke-linejoin:miter;stroke-miterlimit:4;stroke-dasharray:none;stroke-dashoffset:0;stroke-opacity:1;paint-order:normal" />
    <path
       id="rect872-1-2-1"
       d="m 3861.1796,-365.54556 1.8261,-7.14338 c 0,0 22.9349,-2.67467 30.1699,-10.48525 4.1132,-4.44008 8.8678,-13.23113 4.6355,-17.55609 -5.7217,-5.84456 -18.3464,-0.29421 -23.8513,5.75424 -6.9102,7.59188 -7.717,20.77479 -4.382,30.48357 2.9453,8.57605 10.5334,19.01415 19.5991,18.86405 21.3714,-0.34014 44.7072,-45.96436 44.7072,-45.96436 l 3.0615,10.60603 c -1.0375,1.93805 -22.1664,52.57123 -45.7181,54.05721 -19.6229,1.24142 -39.3561,-20.66425 -43.4416,-39.89481 -3.3572,-15.80049 6.3154,-34.82538 19.2802,-44.45793 11.5116,-8.55157 33.1305,-15.64421 42.7289,-4.99192 9.0097,9.99638 0.4236,29.61238 -8.8133,39.39627 -9.4714,10.02927 -27.8505,12.94622 -39.8013,11.33237 z"
       style="opacity:1;fill:none;fill-opacity:1;stroke:#393e46;stroke-width:2.88600039;stroke-linecap:round;stroke-linejoin:miter;stroke-miterlimit:4;stroke-dasharray:none;stroke-dashoffset:0;stroke-opacity:1;paint-order:normal" />
    <path
       id="rect869-2-6-6"
       d="m 3623.8554,-393.09932 v -1.77729 c 0,0 46.9724,20.43139 96.5515,11.21587 40.6416,-7.55417 77.5525,-32.84392 108.424,-60.37953 22.9796,-20.49547 45.9019,-51.24622 53.8411,-75.06049 3.1464,-9.43771 8.7006,-25.66569 -2.4097,-29.74798 -28.5066,-10.47345 -53.467,37.13192 -67.6804,61.7147 -19.9545,34.51783 -29.9048,73.08509 -38.8301,115.232 -8.931,42.14529 -23.8106,132.33439 -3.3745,138.87307 19.6361,6.28367 28.4623,-25.33875 34.074,-65.2226 5.6117,-39.88533 -12.2499,-85.80572 -3.6426,-91.21836 8.4353,-5.30532 9.2982,6.13167 22.9381,11.51314 14.0981,5.56135 23.8316,4.2237 23.8316,4.2237 l 4.8004,15.2581 c 0,0 -20.0682,-9.28572 -27.41,-2.94828 -9.9833,8.61972 -9.3901,25.35351 -7.7401,49.1455 2.9916,43.08766 -20.9564,110.74903 -55.3911,95.77576 -19.5341,-8.49255 -20.829,-45.27563 -21.3094,-69.50213 -1.6311,-82.34368 18.2408,-169.77812 63.005,-238.91084 16.1527,-24.94595 40.8984,-47.46746 69.3582,-56.02004 16.4995,-4.95779 51.9103,8.04675 31.5438,52.58758 -16.5219,36.13451 -43.2806,68.31893 -74.0027,93.56688 -31.6502,26.01343 -68.5941,50.0199 -109.3474,56.12651 -50.001,7.49236 -97.2015,-14.44419 -97.2015,-14.44419 z"
       style="opacity:1;fill:none;fill-opacity:1;stroke:#393e46;stroke-width:2.88600039;stroke-linecap:round;stroke-linejoin:miter;stroke-miterlimit:4;stroke-dasharray:none;stroke-dashoffset:0;stroke-opacity:1;paint-order:normal" />
    <path
       id="rect849-3-1-7-2"
       d="m 3912.1375,-695.92367 c -3.7917,4.8077 -9.2736,14.11979 -8.545,16.41468 0.9334,2.93635 36.9364,-26.92053 48.732,-21.35317 20.8597,9.84586 -8.1616,58.67726 4.8686,68.01404 6.8921,4.93789 20.5806,-11.4911 26.7599,-18.50975 5.0357,-5.71761 7.8754,-5.05583 4.6858,2.409 -5.469,12.80496 -25.9602,34.40774 -39.2507,29.01292 -16.4465,-6.67534 6.3658,-60.07738 -3.6981,-65.88772 -6.604,-3.81345 -34.5806,13.72869 -44.6712,28.14958 -3.7134,5.30584 -3.9121,6.76289 -4.0983,18.98952 -0.2781,19.73459 -6.4403,25.99616 -14.3968,11.72552 -3.3334,-5.97789 -3.6885,-8.90217 -4.5143,-15.79737 -0.964,-8.06773 1.2534,-16.79503 3.2319,-24.93919 1.822,-7.46238 4.108,-14.96251 7.8827,-21.65169 3.3451,-5.92953 7.9061,-12.0928 12.8161,-15.90353 15.874,-12.31768 28.0215,-13.28256 10.1974,9.32716 z"
       style="opacity:1;fill:none;fill-opacity:1;stroke:#393e46;stroke-width:2.88600039;stroke-linecap:round;stroke-linejoin:miter;stroke-miterlimit:4;stroke-dasharray:none;stroke-dashoffset:0;stroke-opacity:1;paint-order:normal" />
    <path
       id="rect831-7-4-5"
       d="m 3887.4955,-666.36596 c 0,0 -10.11,44.07593 -28.1251,46.95703 -11.1033,1.77517 -20.1322,-12.20793 -25.4952,-22.09117 -8.393,-15.46994 -3.1654,-48.51332 -7.2387,-52.30299 -4.0685,-3.78966 -17.7504,-1.36674 -25.7496,1.80599 -8.5336,3.38649 -17.0075,9.33245 -21.3271,17.43558 -4.7045,8.82713 -7.3455,20.95756 -2.8188,29.87739 4.526,8.91964 15.0711,16.10104 25.0467,15.36113 13.5279,-1.0056 33.6423,-17.78942 33.6423,-17.78942 0,0 3.5559,2.81572 3.0356,4.56914 -0.061,0.3184 -10.9393,10.46562 -17.3195,14.43937 -5.7169,3.56127 -11.8183,7.09496 -18.4585,8.22468 -7.6115,1.29268 -15.9468,1.04278 -23.0823,-1.90047 -7.4467,-3.07234 -14.7672,-9.15924 -18.475,-15.57695 -7.4708,-12.93256 -5.5814,-33.07577 2.1739,-46.52586 4.0726,-7.06318 11.0912,-12.29104 17.8656,-16.90871 5.7395,-3.91066 11.6063,-7.08499 18.8611,-8.84528 14.159,-3.43589 33.3739,-6.30804 43.5076,4.15953 13.0781,13.50978 0.1088,37.80445 3.5425,56.29692 2.1888,11.90053 5.1785,16.33224 11.8586,16.16175 13.7809,-0.35103 22.7305,-34.54903 22.7305,-34.54903 z"
       style="opacity:1;fill:none;fill-opacity:1;stroke:#393e46;stroke-width:2.88600039;stroke-linecap:round;stroke-linejoin:miter;stroke-miterlimit:4;stroke-dasharray:none;stroke-dashoffset:0;stroke-opacity:1;paint-order:normal" />
    <path
       id="rect828-6-9-7"
       d="m 3663.6834,-761.95138 c 1.0893,-1.59342 12.9846,-24.90207 25.0978,-28.92491 15.0167,-4.98617 30.6229,11.60754 46.3751,10.12223 15.8053,-1.48989 38.2146,-11.96506 43.813,-18.67495 2.1179,-2.52865 5.6202,-6.91741 0.4732,-9.86734 -5.1474,-2.95004 -16.0786,7.42781 -21.5311,14.03448 -12.4172,15.04597 -16.1637,27.97161 -22.0825,54.19931 -5.9167,26.22768 -4.3663,69.3035 -3.6856,103.97788 0.69,35.51266 6.1602,66.31947 7.9428,106.26203 1.5117,33.76277 -0.6686,52.75268 -10.5899,75.70335 -6.3206,14.6366 -22.4709,31.17723 -38.8744,30.29347 -23.262,-1.25182 -42.0151,-26.81581 -50.1904,-48.62756 -10.1522,-27.07116 -4.48,-60.00734 7.256,-86.42993 25.4578,-57.32221 128.5539,-137.40136 128.5539,-137.40136 l 2.6599,5.02065 c 0,0 -97.0064,80.42321 -121.3599,136.11965 -10.8679,24.85115 -17.3332,55.59081 -7.8211,80.99232 5.9233,15.82565 19.9126,34.94161 36.8118,34.85507 11.5244,-0.0484 19.948,-13.60356 24.8604,-24.02907 10.2953,-21.8372 7.5857,-47.65738 5.675,-72.20166 -2.6587,-34.13861 -6.3528,-68.27491 -6.5576,-102.51615 -0.137,-34.51614 -2.8933,-75.79663 5.3808,-103.41017 8.2708,-27.61386 17.9184,-44.37805 35.0912,-59.88013 12.7001,-11.46402 33.461,-20.62844 41.6512,-13.84258 8.1907,6.78593 4.6517,14.08238 -0.8048,20.04531 -8.2036,8.95989 -36.3426,20.13648 -56.4172,21.41827 -15.7691,1.00545 -30.8442,-15.17914 -46.0978,-11.05186 -11.3076,3.0593 -21.1667,18.61405 -25.3795,24.30563 0,0 -0.2338,-0.44495 -0.2338,-0.48871 z"
       style="opacity:1;fill:none;fill-opacity:1;stroke:#393e46;stroke-width:2.88600039;stroke-linecap:round;stroke-linejoin:miter;stroke-miterlimit:4;stroke-dasharray:none;stroke-dashoffset:0;stroke-opacity:1;paint-order:normal" />
    <path
       id="rect828-2-7"
       d="m 3658.2486,-764.98452 c 1.0833,-1.59312 12.9838,-24.90216 25.0991,-28.92505 15.017,-4.98608 30.6221,11.60766 46.3754,10.12236 15.805,-1.4896 38.2127,-11.96519 43.8111,-18.67515 2.1166,-2.52844 5.6205,-6.91724 0.4711,-9.86722 -5.1426,-2.95004 -16.0738,7.42768 -21.5279,14.03451 -12.4159,15.0461 -16.1636,27.9717 -22.0804,54.19948 -5.9196,26.22748 -4.3672,69.30338 -3.6881,103.97783 0.6872,35.51243 6.1622,66.3194 7.9432,106.26196 1.5069,33.76268 -0.669,52.75265 -10.589,75.70337 -6.3226,14.63649 -22.4714,31.17715 -38.8768,30.2935 -23.2593,-1.25275 -42.0128,-26.816 -50.1881,-48.62772 -10.1513,-27.07113 -4.4792,-60.00726 7.256,-86.42996 25.4562,-57.32213 128.5539,-137.40122 128.5539,-137.40122 l 2.66,5.0207 c 0,0 -97.0061,80.42316 -121.3608,136.11959 -10.8671,24.85112 -17.3307,55.59089 -7.8222,80.99216 5.9248,15.82589 19.9141,34.9418 36.8125,34.85507 11.5253,-0.0484 19.948,-13.60334 24.8617,-24.02888 10.2928,-21.83735 7.5861,-47.65735 5.6741,-72.2018 -2.6583,-34.1386 -6.3524,-68.27475 -6.5571,-102.51614 -0.1371,-34.51596 -2.8921,-75.79659 5.3795,-103.41026 8.2696,-27.61365 17.9184,-44.3778 35.092,-59.87992 12.7017,-11.46403 33.4606,-20.62841 41.6509,-13.84251 8.1918,6.78585 4.652,14.08242 -0.8049,20.04524 -8.2023,8.95996 -36.3434,20.13636 -56.4176,21.41812 -15.7682,1.00575 -30.8445,-15.17909 -46.0985,-11.05177 -11.3056,3.05938 -21.1668,18.61411 -25.376,24.30567 0,0 -0.2337,-0.44542 -0.2337,-0.48878 z"
       style="opacity:1;fill:#ffc368;fill-opacity:1;stroke:none;stroke-width:2.88600039;stroke-linecap:round;stroke-linejoin:miter;stroke-miterlimit:4;stroke-dasharray:none;stroke-dashoffset:0;stroke-opacity:1;paint-order:normal" />
    <path
       id="rect831-0-8"
       d="m 3882.0606,-669.39932 c 0,0 -10.1078,44.07613 -28.1258,46.95718 -11.1037,1.77535 -20.1302,-12.20798 -25.4924,-22.09102 -8.3941,-15.47011 -3.169,-48.51349 -7.2375,-52.30315 -4.0693,-3.78959 -17.7539,-1.36661 -25.7515,1.80603 -8.5344,3.38615 -17.008,9.33223 -21.326,17.43525 -4.7089,8.82741 -7.3475,20.95785 -2.8187,29.87738 4.5247,8.91955 15.0698,16.10127 25.045,15.3611 13.5299,-1.00534 33.6408,-17.78927 33.6408,-17.78927 0,0 3.5566,2.81565 3.0371,4.56939 -0.06,0.3184 -10.94,10.4654 -17.3171,14.43923 -5.7209,3.56122 -11.8202,7.09489 -18.4612,8.22437 -7.6119,1.29254 -15.9464,1.04296 -23.0832,-1.90061 -7.4454,-3.07261 -14.7659,-9.15929 -18.4737,-15.57692 -7.4729,-12.93252 -5.5831,-33.07586 2.1727,-46.52598 4.0733,-7.06311 11.0899,-12.29108 17.8676,-16.9088 5.7382,-3.91045 11.6058,-7.08494 18.8607,-8.84523 14.1581,-3.43569 33.3759,-6.30788 43.5079,4.15944 13.0785,13.50994 0.1088,37.80452 3.5426,56.29708 2.1884,11.90069 5.178,16.33223 11.8565,16.16191 13.781,-0.35023 22.7309,-34.54907 22.7309,-34.54907 z"
       style="opacity:1;fill:#ffc368;fill-opacity:1;stroke:none;stroke-width:2.88600039;stroke-linecap:round;stroke-linejoin:miter;stroke-miterlimit:4;stroke-dasharray:none;stroke-dashoffset:0;stroke-opacity:1;paint-order:normal" />
    <path
       id="rect849-3-14-0"
       d="m 3906.7043,-698.95679 c -3.7913,4.80758 -9.2743,14.11968 -8.5453,16.41452 0.9258,2.93664 36.9362,-26.92044 48.7308,-21.35305 20.8592,9.8459 -8.1629,58.67726 4.8688,68.01409 6.8933,4.93797 20.5808,-11.4913 26.7615,-18.50982 5.0342,-5.71754 7.874,-5.05585 4.684,2.40898 -5.4695,12.80517 -25.9583,34.40789 -39.2511,29.01299 -16.4455,-6.67547 6.3653,-60.0774 -3.6979,-65.8877 -6.6055,-3.81349 -34.5818,13.72849 -44.6702,28.14946 -3.7131,5.30585 -3.9125,6.76289 -4.0988,18.98952 -0.2861,19.73479 -6.4394,25.99608 -14.398,11.72546 -3.3326,-5.97776 -3.6852,-8.90212 -4.5143,-15.79737 -0.9547,-8.06766 1.2547,-16.79477 3.2339,-24.93921 1.8245,-7.46229 4.108,-14.96228 7.8807,-21.65154 3.3472,-5.92963 7.9053,-12.09282 12.817,-15.90365 15.8746,-12.31771 28.0206,-13.28234 10.1989,9.32732 z"
       style="opacity:1;fill:#ffc368;fill-opacity:1;stroke:none;stroke-width:2.88600039;stroke-linecap:round;stroke-linejoin:miter;stroke-miterlimit:4;stroke-dasharray:none;stroke-dashoffset:0;stroke-opacity:1;paint-order:normal" />
    <path
       id="rect849-50-0"
       d="m 4180.8733,-400.21251 c -5.5517,5.90066 -13.8544,17.54351 -13.1572,20.65266 0.8863,3.97864 29.9244,-34.18353 44.9529,-25.698 10.9997,6.20868 -9.9708,31.43991 0.8841,37.8765 10.6484,6.30693 24.0142,-8.52529 32.9693,-17.06467 7.2964,-6.95621 10.9635,-5.75641 5.8974,3.71599 -8.687,16.24913 -32.0858,36.31745 -47.362,28.50344 -14.6168,-7.47708 5.1063,-35.41872 -1.9179,-38.22171 -4.746,-1.89543 -32.5042,22.52308 -41.3534,39.375 -5.2574,10.01424 -6.8216,19.57848 -5.3078,33.51712 2.0598,18.92364 -5.4787,35.23684 -18.2845,11.61063 -5.1497,-9.50227 -5.6527,-19.51164 -5.9497,-28.6961 -0.3346,-10.747 1.5636,-21.62077 4.627,-31.92346 2.9091,-9.73852 7.1424,-19.24989 12.8891,-27.63234 5.0935,-7.43056 11.8138,-15.02926 18.7293,-19.48651 22.3465,-14.40635 38.4689,-14.27747 12.3663,13.47145 z"
       style="opacity:1;fill:#ffc368;fill-opacity:1;stroke:none;stroke-width:2.88600039;stroke-linecap:round;stroke-linejoin:miter;stroke-miterlimit:4;stroke-dasharray:none;stroke-dashoffset:0;stroke-opacity:1;paint-order:normal" />
    <path
       id="rect869-23-6"
       d="m 3620.1448,-396.46032 v -1.77724 c 0,0 46.9679,20.43163 96.5486,11.21588 40.6416,-7.55412 77.5533,-32.84398 108.4265,-60.37951 22.9792,-20.49536 45.9015,-51.24619 53.8398,-75.06046 3.1464,-9.43775 8.7005,-25.66573 -2.4096,-29.74806 -28.5063,-10.4734 -53.4699,37.13191 -67.6797,61.7148 -19.9561,34.51778 -29.9055,73.08514 -38.8317,115.23194 -8.9285,42.14564 -23.8106,132.33369 -3.3721,138.87347 19.6357,6.28256 28.4611,-25.33809 34.0744,-65.22384 5.6097,-39.8844 -12.2527,-85.80488 -3.6437,-91.21754 8.4357,-5.30526 9.2969,6.13178 22.9381,11.51316 14.0969,5.56136 23.8295,4.2237 23.8295,4.2237 l 4.8,15.25813 c 0,0 -20.0673,-9.28579 -27.4076,-2.94825 -9.9853,8.61967 -9.388,25.35409 -7.7392,49.1446 2.9896,43.09034 -20.9592,110.74998 -55.3935,95.77623 -19.5333,-8.49177 -20.8291,-45.27629 -21.3091,-69.50289 -1.631,-82.34251 18.2433,-169.77699 63.0054,-238.90981 16.1556,-24.94579 40.8972,-47.46736 69.3587,-56.01996 16.4989,-4.9579 51.9115,8.04677 31.5443,52.5876 -16.5241,36.13455 -43.2828,68.31891 -74.0032,93.56691 -31.6534,26.01341 -68.5957,50.0199 -109.3462,56.12641 -50.0018,7.49239 -97.2035,-14.44408 -97.2035,-14.44408 z"
       style="opacity:1;fill:#ffc368;fill-opacity:1;stroke:none;stroke-width:2.88600039;stroke-linecap:round;stroke-linejoin:miter;stroke-miterlimit:4;stroke-dasharray:none;stroke-dashoffset:0;stroke-opacity:1;paint-order:normal" />
    <path
       id="rect872-6-3"
       d="m 3857.4681,-368.90648 1.8257,-7.1433 c 0,0 22.9365,-2.67476 30.1716,-10.48534 4.1129,-4.44007 8.8693,-13.23101 4.6351,-17.55605 -5.7213,-5.84465 -18.346,-0.29422 -23.8509,5.75431 -6.9106,7.59175 -7.7163,20.77464 -4.3833,30.4835 2.9461,8.57602 10.5347,19.01375 19.6012,18.86392 21.3698,-0.34581 44.7049,-45.96419 44.7049,-45.96419 l 3.0622,10.6059 c -1.0419,1.93818 -22.1668,52.57292 -45.7182,54.05692 -19.6229,1.24587 -39.3581,-20.66369 -43.4427,-39.89448 -3.3568,-15.80052 6.3153,-34.82534 19.2834,-44.45805 11.5112,-8.55141 33.1282,-15.64402 42.7285,-4.99171 9.008,9.99639 0.4209,29.61228 -8.8137,39.3962 -9.473,10.02927 -27.8529,12.94622 -39.8017,11.33237 z"
       style="opacity:1;fill:#ffc368;fill-opacity:1;stroke:none;stroke-width:2.88600039;stroke-linecap:round;stroke-linejoin:miter;stroke-miterlimit:4;stroke-dasharray:none;stroke-dashoffset:0;stroke-opacity:1;paint-order:normal" />
    <path
       id="rect875-1-2"
       d="m 4053.3599,-394.34588 5.895,16.42851 c 0,0 -20.7016,48.75403 -41.8438,47.75848 -25.7946,-1.20883 -20.1668,-57.10296 -45.3506,-62.80949 -8.6951,-1.97001 -18.8055,5.22261 -23.4748,12.8179 -5.7992,9.43472 -9.613,26.19565 -1.0314,33.2073 5.6258,4.60219 15.7752,-0.15799 21.2249,-4.9878 56.5146,-49.86493 63.275,-176.55085 78.7382,-211.95508 8.2345,-18.85432 30.9272,-21.42943 24.9502,4.48018 -6.973,30.21719 -35.8694,187.64311 -110.4068,226.08937 -11.1251,5.73821 -30.0576,4.24638 -37.0532,-6.13695 -13.4601,-19.98277 -0.3586,-52.69421 15.8493,-70.52366 8.4772,-9.32677 24.112,-16.13059 35.9355,-11.76367 27.3229,10.09124 16.3144,74.11358 45.4361,74.6365 18.8573,0.32928 31.1395,-47.24159 31.1395,-47.24159 z"
       style="opacity:1;fill:#ffc368;fill-opacity:1;stroke:none;stroke-width:2.88600039;stroke-linecap:round;stroke-linejoin:miter;stroke-miterlimit:4;stroke-dasharray:none;stroke-dashoffset:0;stroke-opacity:1;paint-order:normal" />
    <path
       id="rect880-7-0"
       d="m 4100.2806,-408.16449 c -6.7448,-1.32728 -15.5473,4.87897 -19.966,11.07591 -9.0314,12.66883 -17.54,33.60201 -8.0989,45.96858 3.7039,4.85074 12.8049,4.47924 18.2304,1.69124 10.9559,-5.64226 17.3134,-19.69082 18.606,-31.94627 0.9366,-8.9128 0.5482,-26.21515 -8.3857,-25.54536 -1.6568,0.0887 -1.9341,3.66218 -0.8197,4.90464 13.0797,14.79991 59.1956,-2.62938 59.1956,-2.62938 l -8.8734,17.44639 c 0,0 -55.7936,3.64852 -61.3909,-16.81724 -1.8088,-6.61146 7.5196,-15.72199 14.3093,-14.76822 13.6513,1.92019 20.339,22.72363 19.4753,36.4817 -1.3022,20.67489 -22.4694,45.5227 -35.8928,50.73306 -11.0174,4.27633 -27.0401,-0.85524 -33.0438,-10.77293 -12.4721,-20.58104 -4.4906,-53.60921 11.9278,-71.20424 9.999,-10.71587 26.1687,-11.44122 36.4737,-7.01413 19.7867,8.50034 -1.3483,8.24568 -1.7431,12.40081 v 0 z"
       style="opacity:1;fill:#ffc368;fill-opacity:1;stroke:none;stroke-width:2.88600039;stroke-linecap:round;stroke-linejoin:miter;stroke-miterlimit:4;stroke-dasharray:none;stroke-dashoffset:0;stroke-opacity:1;paint-order:normal" />
    <path
       id="rect817"
       d="M 893.12383,88.013 H 385.1239 V 74.201645 c 0,0 103.11729,-10.363597 154.83029,-9.886501 72.36213,0.667624 143.99729,18.015744 216.36226,17.829186 45.77696,-0.118004 136.80738,-11.984011 136.80738,-11.984011 z"
       style="opacity:1;fill:#ffffff;fill-opacity:1;stroke:none;stroke-width:0.76358742;stroke-linecap:round;stroke-linejoin:miter;stroke-miterlimit:4;stroke-dasharray:none;stroke-dashoffset:0;stroke-opacity:1;paint-order:normal" />
  </g>
</svg>
